<svg xmlns="http://www.w3.org/2000/svg" width="23" height="32" viewBox="0 0 23 32">
    <g fill="#FFF" fill-rule="evenodd">
        <path fill-rule="nonzero" d="M0 22.216c0 .641.133 2.06.398 4.256 2.375 3.163 5.728 4.744 10.06 4.744h1.026c5.417.003 9.123-1.577 11.118-4.738.265-2.196.398-3.615.398-4.255 0-4.605-3.167-8.527-7.605-10.033a2.885 2.885 0 0 0-.393-2.481l2.383-4.388c.162.03.327.047.499.047 1.507 0 2.732-1.2 2.732-2.681 0-1.48-1.223-2.682-2.732-2.682-1.51 0-2.732 1.201-2.732 2.682 0 .682.261 1.304.688 1.777l-2.255 4.157a3.03 3.03 0 0 0-1.042-.187h-1.027l-1.058-.005c-.368 0-.716.067-1.041.187l-2.258-4.16a2.64 2.64 0 0 0 .69-1.776C7.85 1.2 6.627 0 5.12 0 3.61 0 2.386 1.2 2.386 2.681s1.223 2.68 2.733 2.68c.17 0 .336-.017.499-.047L8 9.702a2.865 2.865 0 0 0-.395 2.48C3.165 13.69 0 17.612 0 22.216zm18.767-2.576c0 1.76-1.453 3.188-3.249 3.188-1.794 0-3.248-1.427-3.248-3.188 0-1.762 1.454-3.189 3.248-3.189 1.796 0 3.249 1.427 3.249 3.189zM7.48 16.445c1.794 0 3.249 1.427 3.249 3.188 0 1.763-1.454 3.188-3.249 3.188-1.794 0-3.248-1.428-3.248-3.188 0-1.76 1.454-3.188 3.248-3.188z"/>
        <circle cx="6.5" cy="20.5" r="1.5"/>
        <circle cx="14.5" cy="20.5" r="1.5"/>
    </g>
</svg>
